#!OML:ASF I:\Actors\actors\Patient Classification 1\Patient 1\Session 1\Subject1.ASF
:FULLY-SPECIFIED
:DEGREES
694
root 0.668784 17.5077 8.0981 7.22032 -1.17135 -8.3672
lowerback 10.9057 0.716701 5.51817
upperback -1.60766 2.13996 5.55424
thorax -7.88559 0.933101 2.42878
lowerneck -8.6946 -10.537 -6.66561
upperneck 26.2794 -16.1607 8.71733
head 11.2232 -7.112 2.15276
rclavicle -4.57205e-015 5.1684e-014
rhumerus 18.7674 4.46647 -77.8942
rradius 50.2631
rwrist -31.8474
rhand 6.72682 -63.254
rfingers 7.12502
rthumb 32.0156 90.4569
lclavicle -4.57205e-015 5.1684e-014
lhumerus -49.0914 0.982581 90.8693
lradius 88.9531
lwrist 63.8797
lhand -32.9977 13.39
lfingers 7.12502
lthumb -6.21198 43.2789
rfemur -10.7044 12.6974 23.2858
rtibia 11.2975
rfoot -12.1627 -18.2153
rtoes 1.01095
lfemur -3.85535 -27.2226 -5.5676
ltibia 0.866145
lfoot -10.7274 35.0761
ltoes -3.22313
695
root 0.660308 17.5089 8.10944 7.24479 -1.2258 -8.54453
lowerback 10.8261 0.733359 5.54282
upperback -1.67365 2.16639 5.59113
thorax -7.9124 0.945129 2.45154
lowerneck -8.71536 -10.5238 -6.84971
upperneck 26.1794 -16.2078 9.09932
head 11.2495 -7.11215 2.30766
rclavicle -1.04362e-014 -3.89618e-014
rhumerus 18.6877 -5.0945 -82.9158
rradius 54.4182
rwrist -57.7093
rhand 2.03012 -71.6067
rfingers 7.12502
rthumb 27.5334 99.6133
lclavicle -1.04362e-014 -3.89618e-014
lhumerus -49.1701 0.68091 91.0533
lradius 88.8044
lwrist 64.1332
lhand -34.888 12.8324
lfingers 7.12502
lthumb -8.0367 42.6596
rfemur -10.6474 12.6795 23.5223
rtibia 11.2234
rfoot -12.1021 -18.0844
rtoes 0.9057
lfemur -3.70234 -27.3059 -5.35906
ltibia 0.70743
lfoot -10.7165 35.2389
ltoes -3.48124
696
root 0.654632 17.5085 8.1217 7.30391 -1.23095 -8.72588
lowerback 10.6518 0.744573 5.58135
upperback -1.75763 2.1829 5.66825
thorax -7.90549 0.953309 2.51241
lowerneck -8.77707 -10.5099 -6.64725
upperneck 26.0527 -16.1183 8.79354
head 11.1548 -7.08875 2.17931
rclavicle -4.87022e-015 -1.35174e-014
rhumerus 16.8806 -0.511746 -82.2195
rradius 53.5469
rwrist -55.2165
rhand 15.8921 -71.0386
rfingers 7.12502
rthumb 40.6907 96.0525
lclavicle -4.87022e-015 -1.35174e-014
lhumerus -49.2609 0.438602 91.2554
lradius 88.6762
lwrist 64.3453
lhand -36.5148 12.442
lfingers 7.12502
lthumb -9.60655 42.2029
rfemur -10.5942 12.7294 23.7417
rtibia 11.0953
rfoot -12.118 -18.0431
rtoes 1.03974
lfemur -3.59589 -27.6209 -5.15763
ltibia 0.563154
lfoot -10.7259 35.5803
ltoes -3.60337
697
root 0.64925 17.5081 8.13304 7.31338 -1.34708 -8.88076
lowerback 10.5665 0.786926 5.5567
upperback -1.85798 2.2421 5.73822
thorax -7.96982 0.98381 2.59347
lowerneck -8.80477 -10.3976 -6.47451
upperneck 25.9511 -15.9285 8.62976
head 11.0713 -7.00796 2.12333
rclavicle 1.44119e-014 -3.18055e-014
rhumerus 16.32 1.52835 -81.654
rradius 52.9363
rwrist -37.8773
rhand 2.64712 -60.5964
rfingers 7.12502
rthumb 28.1233 271.492
lclavicle 1.44119e-014 -3.18055e-014
lhumerus -49.4093 0.337436 91.3767
lradius 88.5448
lwrist 64.6365
lhand -37.4928 12.4054
lfingers 7.12502
lthumb -10.55 42.1206
rfemur -10.5157 12.7929 23.9359
rtibia 11.0137
rfoot -12.1135 -17.9233
rtoes 0.955937
lfemur -3.41783 -27.926 -5.02854
ltibia 0.460318
lfoot -10.8253 35.9697
ltoes -3.29342
698
root 0.64603 17.5079 8.146 7.28105 -1.50839 -9.00339
lowerback 10.5077 0.812842 5.51472
upperback -1.97716 2.27835 5.77094
thorax -8.06863 1.00237 2.6484
lowerneck -8.84503 -10.2489 -6.30265
upperneck 25.9226 -15.7207 8.54735
head 11.0254 -6.90754 2.09753
rclavicle 5.96354e-015 -3.89618e-014
rhumerus 16.0414 3.53711 -80.7838
rradius 50.8864
rwrist -19.8136
rhand 15.3331 -57.4262
rfingers 7.12502
rthumb 40.1651 277.398
lclavicle 5.96354e-015 -3.89618e-014
lhumerus -49.5828 0.404668 91.3632
lradius 88.392
lwrist 65.0034
lhand -38.034 12.6674
lfingers 7.12502
lthumb -11.0721 42.3553
rfemur -10.408 12.7664 24.1015
rtibia 10.965
rfoot -12.0464 -17.7025
rtoes 0.602052
lfemur -3.27019 -27.88 -4.94905
ltibia 0.4933
lfoot -10.9107 36.0552
ltoes -3.1308
699
root 0.645756 17.5075 8.16048 7.22863 -1.64451 -9.08094
lowerback 10.4045 0.807128 5.49458
upperback -2.09221 2.26639 5.75273
thorax -8.13354 0.995572 2.64484
lowerneck -8.98331 -10.123 -6.20512
upperneck 25.9946 -15.5678 8.55186
head 11.0576 -6.82225 2.09905
rclavicle -1.53064e-014 -2.62396e-014
rhumerus 15.9403 4.82745 -80.2812
rradius 49.9002
rwrist -16.2539
rhand 18.0358 -57.3033
rfingers 7.12502
rthumb 42.7011 278.346
lclavicle -1.53064e-014 -2.62396e-014
lhumerus -49.6919 0.530859 91.2759
lradius 88.2297
lwrist 65.4266
lhand -38.4753 12.7678
lfingers 7.12502
lthumb -11.4977 42.4325
rfemur -10.2572 12.7621 24.2193
rtibia 10.8919
rfoot -11.9934 -17.5431
rtoes 0.317169
lfemur -3.17087 -27.5789 -4.92189
ltibia 0.608819
lfoot -10.904 35.8602
ltoes -3.41282
700
root 0.644917 17.5072 8.17361 7.1271 -1.86026 -9.14078
lowerback 10.3277 0.834668 5.48384
upperback -2.16758 2.29487 5.68112
thorax -8.16785 1.00698 2.57068
lowerneck -9.1165 -10.0153 -6.17352
upperneck 25.9907 -15.4502 8.66507
head 11.0797 -6.75 2.14435
rclavicle 1.17283e-014 7.15625e-014
rhumerus 15.7471 5.35019 -80.2923
rradius 49.8589
rwrist -20.5826
rhand 15.2226 -59.3816
rfingers 7.12502
rthumb 40.0611 275.411
lclavicle 1.17283e-014 7.15625e-014
lhumerus -49.7011 0.532235 91.1489
lradius 88.1189
lwrist 65.8057
lhand -38.7436 12.6678
lfingers 7.12502
lthumb -11.7564 42.3179
rfemur -10.0655 12.8982 24.3341
rtibia 10.8434
rfoot -11.9819 -17.4609
rtoes 0.251461
lfemur -2.89684 -27.4343 -4.98066
ltibia 0.607406
lfoot -11.1272 35.8448
ltoes -3.10448
701
root 0.643223 17.5074 8.18606 7.07363 -1.9851 -8.99739
lowerback 10.1735 0.866133 5.37046
upperback -2.26787 2.30076 5.49516
thorax -8.18162 1.00942 2.43589
lowerneck -9.17952 -9.94355 -6.16267
upperneck 25.8821 -15.3958 8.87267
head 11.0649 -6.70436 2.22095
rclavicle 1.54058e-014 -4.45278e-014
rhumerus 15.2633 5.00623 -80.7866
rradius 50.2201
rwrist -22.9668
rhand 13.8313 -61.1358
rfingers 7.12502
rthumb 38.7504 273.273
lclavicle 1.54058e-014 -4.45278e-014
lhumerus -49.6335 0.343964 90.9956
lradius 88.0736
lwrist 66.0016
lhand -38.7841 12.7448
lfingers 7.12502
lthumb -11.7955 42.3926
rfemur -9.91372 12.9679 24.1978
rtibia 10.7601
rfoot -11.9796 -17.4283
rtoes 0.298906
lfemur -2.73083 -27.4244 -5.25846
ltibia 0.649982
lfoot -11.3483 35.8685
ltoes -2.69372
702
root 0.641073 17.5069 8.1988 7.03857 -1.99845 -8.87157
lowerback 10.0007 0.886661 5.34214
upperback -2.40255 2.30264 5.28458
thorax -8.21781 1.00447 2.22877
lowerneck -9.34156 -9.92018 -6.12924
upperneck 25.863 -15.4018 9.00305
head 11.0999 -6.68504 2.25202
rclavicle 1.09332e-014 5.56597e-015
rhumerus 14.649 4.46005 -81.3854
rradius 50.6196
rwrist -23.6159
rhand 12.4152 -61.5141
rfingers 7.12502
rthumb 37.4133 272.529
lclavicle 1.09332e-014 5.56597e-015
lhumerus -49.5384 0.104943 90.8617
lradius 88.0533
lwrist 65.8783
lhand -38.504 13.2682
lfingers 7.12502
lthumb -11.5253 42.9314
rfemur -9.7578 13.0108 24.0896
rtibia 10.6458
rfoot -11.9893 -17.486
rtoes 0.174528
lfemur -2.73728 -27.2989 -5.45657
ltibia 0.84785
lfoot -11.2945 35.7215
ltoes -3.07319
